<mxfile host="app.diagrams.net" modified="2021-07-08T21:43:46.491Z" agent="5.0 (Macintosh; Intel Mac OS X 10_15_7) AppleWebKit/537.36 (KHTML, like Gecko) Chrome/91.0.4472.114 Safari/537.36" etag="qpNrSocnpXH6duujoWxW" version="14.8.4" type="github">
  <diagram id="WVvl7FqED-bUTkAwLAjd" name="Page-1">
    <mxGraphModel dx="997" dy="573" grid="1" gridSize="10" guides="1" tooltips="1" connect="1" arrows="1" fold="1" page="1" pageScale="1" pageWidth="827" pageHeight="1169" math="0" shadow="0">
      <root>
        <mxCell id="0" />
        <mxCell id="1" parent="0" />
        <mxCell id="ZLZ2BPsOkGQvohF2f_RD-1" value="航班" style="rounded=0;whiteSpace=wrap;html=1;" vertex="1" parent="1">
          <mxGeometry x="150" y="335" width="120" height="60" as="geometry" />
        </mxCell>
        <mxCell id="ZLZ2BPsOkGQvohF2f_RD-2" value="乘客" style="rounded=0;whiteSpace=wrap;html=1;" vertex="1" parent="1">
          <mxGeometry x="530" y="340" width="120" height="60" as="geometry" />
        </mxCell>
        <mxCell id="ZLZ2BPsOkGQvohF2f_RD-3" value="出发地" style="ellipse;whiteSpace=wrap;html=1;" vertex="1" parent="1">
          <mxGeometry x="30" y="250" width="80" height="50" as="geometry" />
        </mxCell>
        <mxCell id="ZLZ2BPsOkGQvohF2f_RD-4" value="目的地" style="ellipse;whiteSpace=wrap;html=1;" vertex="1" parent="1">
          <mxGeometry x="30" y="310" width="80" height="50" as="geometry" />
        </mxCell>
        <mxCell id="ZLZ2BPsOkGQvohF2f_RD-5" value="开始时间" style="ellipse;whiteSpace=wrap;html=1;" vertex="1" parent="1">
          <mxGeometry x="30" y="370" width="80" height="50" as="geometry" />
        </mxCell>
        <mxCell id="ZLZ2BPsOkGQvohF2f_RD-6" value="航班信息" style="ellipse;whiteSpace=wrap;html=1;" vertex="1" parent="1">
          <mxGeometry x="30" y="430" width="80" height="50" as="geometry" />
        </mxCell>
        <mxCell id="ZLZ2BPsOkGQvohF2f_RD-7" value="价格" style="ellipse;whiteSpace=wrap;html=1;" vertex="1" parent="1">
          <mxGeometry x="30" y="490" width="80" height="50" as="geometry" />
        </mxCell>
        <mxCell id="ZLZ2BPsOkGQvohF2f_RD-8" value="&lt;u&gt;乘客编号&lt;span style=&quot;color: rgba(0 , 0 , 0 , 0) ; font-family: monospace ; font-size: 0px&quot;&gt;%3CmxGraphModel%3E%3Croot%3E%3CmxCell%20id%3D%220%22%2F%3E%3CmxCell%20id%3D%221%22%20parent%3D%220%22%2F%3E%3CmxCell%20id%3D%222%22%20value%3D%22%E5%BC%80%E5%A7%8B%E6%97%B6%E9%97%B4%22%20style%3D%22ellipse%3BwhiteSpace%3Dwrap%3Bhtml%3D1%3B%22%20vertex%3D%221%22%20parent%3D%221%22%3E%3CmxGeometry%20x%3D%2230%22%20y%3D%22340%22%20width%3D%2280%22%20height%3D%2250%22%20as%3D%22geometry%22%2F%3E%3C%2FmxCell%3E%3C%2Froot%3E%3C%2FmxGraphModel%3E&lt;/span&gt;&lt;/u&gt;" style="ellipse;whiteSpace=wrap;html=1;" vertex="1" parent="1">
          <mxGeometry x="690" y="230" width="80" height="50" as="geometry" />
        </mxCell>
        <mxCell id="ZLZ2BPsOkGQvohF2f_RD-9" value="基本信息" style="ellipse;whiteSpace=wrap;html=1;" vertex="1" parent="1">
          <mxGeometry x="690" y="290" width="80" height="50" as="geometry" />
        </mxCell>
        <mxCell id="ZLZ2BPsOkGQvohF2f_RD-10" value="用户名" style="ellipse;whiteSpace=wrap;html=1;" vertex="1" parent="1">
          <mxGeometry x="690" y="350" width="80" height="50" as="geometry" />
        </mxCell>
        <mxCell id="ZLZ2BPsOkGQvohF2f_RD-11" value="密码" style="ellipse;whiteSpace=wrap;html=1;" vertex="1" parent="1">
          <mxGeometry x="690" y="410" width="80" height="50" as="geometry" />
        </mxCell>
        <mxCell id="ZLZ2BPsOkGQvohF2f_RD-12" value="权限" style="ellipse;whiteSpace=wrap;html=1;" vertex="1" parent="1">
          <mxGeometry x="690" y="470" width="80" height="50" as="geometry" />
        </mxCell>
        <mxCell id="ZLZ2BPsOkGQvohF2f_RD-13" value="&lt;u&gt;航班编号&lt;/u&gt;" style="ellipse;whiteSpace=wrap;html=1;" vertex="1" parent="1">
          <mxGeometry x="30" y="190" width="80" height="50" as="geometry" />
        </mxCell>
        <mxCell id="ZLZ2BPsOkGQvohF2f_RD-14" value="乘坐" style="rhombus;whiteSpace=wrap;html=1;" vertex="1" parent="1">
          <mxGeometry x="340" y="230" width="120" height="70" as="geometry" />
        </mxCell>
        <mxCell id="ZLZ2BPsOkGQvohF2f_RD-15" value="座位号" style="ellipse;whiteSpace=wrap;html=1;" vertex="1" parent="1">
          <mxGeometry x="360" y="150" width="80" height="50" as="geometry" />
        </mxCell>
        <mxCell id="ZLZ2BPsOkGQvohF2f_RD-16" value="预订" style="rhombus;whiteSpace=wrap;html=1;" vertex="1" parent="1">
          <mxGeometry x="340" y="410" width="120" height="70" as="geometry" />
        </mxCell>
        <mxCell id="ZLZ2BPsOkGQvohF2f_RD-17" value="价格" style="ellipse;whiteSpace=wrap;html=1;" vertex="1" parent="1">
          <mxGeometry x="290" y="510" width="80" height="50" as="geometry" />
        </mxCell>
        <mxCell id="ZLZ2BPsOkGQvohF2f_RD-18" value="" style="endArrow=none;html=1;entryX=0;entryY=0.5;entryDx=0;entryDy=0;exitX=1;exitY=0.5;exitDx=0;exitDy=0;" edge="1" parent="1" source="ZLZ2BPsOkGQvohF2f_RD-14" target="ZLZ2BPsOkGQvohF2f_RD-2">
          <mxGeometry width="50" height="50" relative="1" as="geometry">
            <mxPoint x="390" y="420" as="sourcePoint" />
            <mxPoint x="440" y="370" as="targetPoint" />
          </mxGeometry>
        </mxCell>
        <mxCell id="ZLZ2BPsOkGQvohF2f_RD-19" value="" style="endArrow=none;html=1;entryX=0;entryY=0.5;entryDx=0;entryDy=0;exitX=1;exitY=0.5;exitDx=0;exitDy=0;" edge="1" parent="1" source="ZLZ2BPsOkGQvohF2f_RD-1" target="ZLZ2BPsOkGQvohF2f_RD-14">
          <mxGeometry width="50" height="50" relative="1" as="geometry">
            <mxPoint x="390" y="420" as="sourcePoint" />
            <mxPoint x="440" y="370" as="targetPoint" />
          </mxGeometry>
        </mxCell>
        <mxCell id="ZLZ2BPsOkGQvohF2f_RD-20" value="" style="endArrow=none;html=1;entryX=0.5;entryY=1;entryDx=0;entryDy=0;" edge="1" parent="1" target="ZLZ2BPsOkGQvohF2f_RD-15">
          <mxGeometry width="50" height="50" relative="1" as="geometry">
            <mxPoint x="400" y="230" as="sourcePoint" />
            <mxPoint x="440" y="370" as="targetPoint" />
          </mxGeometry>
        </mxCell>
        <mxCell id="ZLZ2BPsOkGQvohF2f_RD-21" value="" style="endArrow=none;html=1;exitX=1;exitY=0.5;exitDx=0;exitDy=0;entryX=0;entryY=0.5;entryDx=0;entryDy=0;" edge="1" parent="1" source="ZLZ2BPsOkGQvohF2f_RD-7" target="ZLZ2BPsOkGQvohF2f_RD-1">
          <mxGeometry width="50" height="50" relative="1" as="geometry">
            <mxPoint x="390" y="420" as="sourcePoint" />
            <mxPoint x="440" y="370" as="targetPoint" />
          </mxGeometry>
        </mxCell>
        <mxCell id="ZLZ2BPsOkGQvohF2f_RD-22" value="" style="endArrow=none;html=1;exitX=1;exitY=0.5;exitDx=0;exitDy=0;entryX=0;entryY=0.5;entryDx=0;entryDy=0;" edge="1" parent="1" source="ZLZ2BPsOkGQvohF2f_RD-13" target="ZLZ2BPsOkGQvohF2f_RD-1">
          <mxGeometry width="50" height="50" relative="1" as="geometry">
            <mxPoint x="160" y="250" as="sourcePoint" />
            <mxPoint x="210" y="200" as="targetPoint" />
          </mxGeometry>
        </mxCell>
        <mxCell id="ZLZ2BPsOkGQvohF2f_RD-23" value="" style="endArrow=none;html=1;exitX=1;exitY=0.5;exitDx=0;exitDy=0;entryX=0;entryY=0.5;entryDx=0;entryDy=0;" edge="1" parent="1" source="ZLZ2BPsOkGQvohF2f_RD-3" target="ZLZ2BPsOkGQvohF2f_RD-1">
          <mxGeometry width="50" height="50" relative="1" as="geometry">
            <mxPoint x="170" y="260" as="sourcePoint" />
            <mxPoint x="220" y="210" as="targetPoint" />
          </mxGeometry>
        </mxCell>
        <mxCell id="ZLZ2BPsOkGQvohF2f_RD-24" value="" style="endArrow=none;html=1;exitX=1;exitY=0.5;exitDx=0;exitDy=0;entryX=0;entryY=0.5;entryDx=0;entryDy=0;" edge="1" parent="1" source="ZLZ2BPsOkGQvohF2f_RD-4" target="ZLZ2BPsOkGQvohF2f_RD-1">
          <mxGeometry width="50" height="50" relative="1" as="geometry">
            <mxPoint x="180" y="270" as="sourcePoint" />
            <mxPoint x="230" y="220" as="targetPoint" />
          </mxGeometry>
        </mxCell>
        <mxCell id="ZLZ2BPsOkGQvohF2f_RD-25" value="" style="endArrow=none;html=1;exitX=1;exitY=0.5;exitDx=0;exitDy=0;entryX=0;entryY=0.5;entryDx=0;entryDy=0;" edge="1" parent="1" source="ZLZ2BPsOkGQvohF2f_RD-5" target="ZLZ2BPsOkGQvohF2f_RD-1">
          <mxGeometry width="50" height="50" relative="1" as="geometry">
            <mxPoint x="190" y="280" as="sourcePoint" />
            <mxPoint x="240" y="230" as="targetPoint" />
          </mxGeometry>
        </mxCell>
        <mxCell id="ZLZ2BPsOkGQvohF2f_RD-26" value="" style="endArrow=none;html=1;exitX=1;exitY=0.5;exitDx=0;exitDy=0;entryX=0;entryY=0.5;entryDx=0;entryDy=0;" edge="1" parent="1" source="ZLZ2BPsOkGQvohF2f_RD-6" target="ZLZ2BPsOkGQvohF2f_RD-1">
          <mxGeometry width="50" height="50" relative="1" as="geometry">
            <mxPoint x="200" y="290" as="sourcePoint" />
            <mxPoint x="250" y="240" as="targetPoint" />
          </mxGeometry>
        </mxCell>
        <mxCell id="ZLZ2BPsOkGQvohF2f_RD-28" value="预定时间" style="ellipse;whiteSpace=wrap;html=1;" vertex="1" parent="1">
          <mxGeometry x="414" y="510" width="80" height="50" as="geometry" />
        </mxCell>
        <mxCell id="ZLZ2BPsOkGQvohF2f_RD-30" value="" style="endArrow=none;html=1;entryX=1;entryY=0.5;entryDx=0;entryDy=0;exitX=0;exitY=0.5;exitDx=0;exitDy=0;" edge="1" parent="1" source="ZLZ2BPsOkGQvohF2f_RD-16" target="ZLZ2BPsOkGQvohF2f_RD-1">
          <mxGeometry width="50" height="50" relative="1" as="geometry">
            <mxPoint x="470" y="275" as="sourcePoint" />
            <mxPoint x="570" y="380" as="targetPoint" />
          </mxGeometry>
        </mxCell>
        <mxCell id="ZLZ2BPsOkGQvohF2f_RD-31" value="" style="endArrow=none;html=1;entryX=0.5;entryY=0;entryDx=0;entryDy=0;exitX=0.5;exitY=1;exitDx=0;exitDy=0;" edge="1" parent="1" source="ZLZ2BPsOkGQvohF2f_RD-16" target="ZLZ2BPsOkGQvohF2f_RD-17">
          <mxGeometry width="50" height="50" relative="1" as="geometry">
            <mxPoint x="430" y="360" as="sourcePoint" />
            <mxPoint x="360" y="310" as="targetPoint" />
          </mxGeometry>
        </mxCell>
        <mxCell id="ZLZ2BPsOkGQvohF2f_RD-32" value="" style="endArrow=none;html=1;entryX=0;entryY=0.5;entryDx=0;entryDy=0;exitX=1;exitY=0.5;exitDx=0;exitDy=0;" edge="1" parent="1" source="ZLZ2BPsOkGQvohF2f_RD-16" target="ZLZ2BPsOkGQvohF2f_RD-2">
          <mxGeometry width="50" height="50" relative="1" as="geometry">
            <mxPoint x="440" y="370" as="sourcePoint" />
            <mxPoint x="370" y="320" as="targetPoint" />
          </mxGeometry>
        </mxCell>
        <mxCell id="ZLZ2BPsOkGQvohF2f_RD-33" value="" style="endArrow=none;html=1;entryX=0.5;entryY=1;entryDx=0;entryDy=0;exitX=0.5;exitY=0;exitDx=0;exitDy=0;" edge="1" parent="1" source="ZLZ2BPsOkGQvohF2f_RD-28" target="ZLZ2BPsOkGQvohF2f_RD-16">
          <mxGeometry width="50" height="50" relative="1" as="geometry">
            <mxPoint x="450" y="380" as="sourcePoint" />
            <mxPoint x="380" y="330" as="targetPoint" />
          </mxGeometry>
        </mxCell>
        <mxCell id="ZLZ2BPsOkGQvohF2f_RD-34" value="" style="endArrow=none;html=1;entryX=0;entryY=0.5;entryDx=0;entryDy=0;exitX=1;exitY=0.5;exitDx=0;exitDy=0;" edge="1" parent="1" source="ZLZ2BPsOkGQvohF2f_RD-2" target="ZLZ2BPsOkGQvohF2f_RD-8">
          <mxGeometry width="50" height="50" relative="1" as="geometry">
            <mxPoint x="430" y="390" as="sourcePoint" />
            <mxPoint x="360" y="340" as="targetPoint" />
          </mxGeometry>
        </mxCell>
        <mxCell id="ZLZ2BPsOkGQvohF2f_RD-35" value="" style="endArrow=none;html=1;entryX=0;entryY=0.5;entryDx=0;entryDy=0;exitX=1;exitY=0.5;exitDx=0;exitDy=0;" edge="1" parent="1" source="ZLZ2BPsOkGQvohF2f_RD-2" target="ZLZ2BPsOkGQvohF2f_RD-9">
          <mxGeometry width="50" height="50" relative="1" as="geometry">
            <mxPoint x="440" y="400" as="sourcePoint" />
            <mxPoint x="370" y="350" as="targetPoint" />
          </mxGeometry>
        </mxCell>
        <mxCell id="ZLZ2BPsOkGQvohF2f_RD-36" value="" style="endArrow=none;html=1;entryX=0;entryY=0.5;entryDx=0;entryDy=0;exitX=1;exitY=0.5;exitDx=0;exitDy=0;" edge="1" parent="1" source="ZLZ2BPsOkGQvohF2f_RD-2" target="ZLZ2BPsOkGQvohF2f_RD-10">
          <mxGeometry width="50" height="50" relative="1" as="geometry">
            <mxPoint x="450" y="410" as="sourcePoint" />
            <mxPoint x="380" y="360" as="targetPoint" />
          </mxGeometry>
        </mxCell>
        <mxCell id="ZLZ2BPsOkGQvohF2f_RD-37" value="" style="endArrow=none;html=1;entryX=0;entryY=0.5;entryDx=0;entryDy=0;exitX=1;exitY=0.5;exitDx=0;exitDy=0;" edge="1" parent="1" source="ZLZ2BPsOkGQvohF2f_RD-2" target="ZLZ2BPsOkGQvohF2f_RD-11">
          <mxGeometry width="50" height="50" relative="1" as="geometry">
            <mxPoint x="460" y="420" as="sourcePoint" />
            <mxPoint x="390" y="370" as="targetPoint" />
          </mxGeometry>
        </mxCell>
        <mxCell id="ZLZ2BPsOkGQvohF2f_RD-38" value="" style="endArrow=none;html=1;entryX=0;entryY=0.5;entryDx=0;entryDy=0;exitX=1;exitY=0.5;exitDx=0;exitDy=0;" edge="1" parent="1" source="ZLZ2BPsOkGQvohF2f_RD-2" target="ZLZ2BPsOkGQvohF2f_RD-12">
          <mxGeometry width="50" height="50" relative="1" as="geometry">
            <mxPoint x="470" y="430" as="sourcePoint" />
            <mxPoint x="400" y="380" as="targetPoint" />
          </mxGeometry>
        </mxCell>
        <mxCell id="ZLZ2BPsOkGQvohF2f_RD-45" style="edgeStyle=orthogonalEdgeStyle;rounded=0;orthogonalLoop=1;jettySize=auto;html=1;entryX=0.5;entryY=0;entryDx=0;entryDy=0;" edge="1" parent="1" source="ZLZ2BPsOkGQvohF2f_RD-39" target="ZLZ2BPsOkGQvohF2f_RD-41">
          <mxGeometry relative="1" as="geometry" />
        </mxCell>
        <mxCell id="ZLZ2BPsOkGQvohF2f_RD-39" value="数据库" style="rounded=0;whiteSpace=wrap;html=1;" vertex="1" parent="1">
          <mxGeometry x="330" y="660" width="100" height="50" as="geometry" />
        </mxCell>
        <mxCell id="ZLZ2BPsOkGQvohF2f_RD-46" style="edgeStyle=orthogonalEdgeStyle;rounded=0;orthogonalLoop=1;jettySize=auto;html=1;entryX=0.5;entryY=1;entryDx=0;entryDy=0;" edge="1" parent="1" source="ZLZ2BPsOkGQvohF2f_RD-41" target="ZLZ2BPsOkGQvohF2f_RD-39">
          <mxGeometry relative="1" as="geometry" />
        </mxCell>
        <mxCell id="ZLZ2BPsOkGQvohF2f_RD-47" style="edgeStyle=orthogonalEdgeStyle;rounded=0;orthogonalLoop=1;jettySize=auto;html=1;entryX=0.5;entryY=0;entryDx=0;entryDy=0;" edge="1" parent="1" source="ZLZ2BPsOkGQvohF2f_RD-41" target="ZLZ2BPsOkGQvohF2f_RD-42">
          <mxGeometry relative="1" as="geometry" />
        </mxCell>
        <mxCell id="ZLZ2BPsOkGQvohF2f_RD-48" style="edgeStyle=orthogonalEdgeStyle;rounded=0;orthogonalLoop=1;jettySize=auto;html=1;entryX=0.5;entryY=0;entryDx=0;entryDy=0;" edge="1" parent="1" source="ZLZ2BPsOkGQvohF2f_RD-41" target="ZLZ2BPsOkGQvohF2f_RD-44">
          <mxGeometry relative="1" as="geometry" />
        </mxCell>
        <mxCell id="ZLZ2BPsOkGQvohF2f_RD-41" value="服务端" style="rounded=0;whiteSpace=wrap;html=1;" vertex="1" parent="1">
          <mxGeometry x="330" y="750" width="100" height="50" as="geometry" />
        </mxCell>
        <mxCell id="ZLZ2BPsOkGQvohF2f_RD-50" style="edgeStyle=orthogonalEdgeStyle;rounded=0;orthogonalLoop=1;jettySize=auto;html=1;entryX=0.5;entryY=1;entryDx=0;entryDy=0;" edge="1" parent="1" source="ZLZ2BPsOkGQvohF2f_RD-42" target="ZLZ2BPsOkGQvohF2f_RD-41">
          <mxGeometry relative="1" as="geometry" />
        </mxCell>
        <mxCell id="ZLZ2BPsOkGQvohF2f_RD-42" value="管理员客户端" style="rounded=0;whiteSpace=wrap;html=1;" vertex="1" parent="1">
          <mxGeometry x="270" y="850" width="100" height="50" as="geometry" />
        </mxCell>
        <mxCell id="ZLZ2BPsOkGQvohF2f_RD-49" style="edgeStyle=orthogonalEdgeStyle;rounded=0;orthogonalLoop=1;jettySize=auto;html=1;entryX=0.5;entryY=1;entryDx=0;entryDy=0;" edge="1" parent="1" source="ZLZ2BPsOkGQvohF2f_RD-44" target="ZLZ2BPsOkGQvohF2f_RD-41">
          <mxGeometry relative="1" as="geometry" />
        </mxCell>
        <mxCell id="ZLZ2BPsOkGQvohF2f_RD-44" value="用户客户端" style="rounded=0;whiteSpace=wrap;html=1;" vertex="1" parent="1">
          <mxGeometry x="404" y="850" width="100" height="50" as="geometry" />
        </mxCell>
      </root>
    </mxGraphModel>
  </diagram>
</mxfile>
